PathFileType	4	(x/y/z)	S01_PSF_T12.trc
DataRate	CameraRate	NumFrames	NumMarkers	Units	OrigDataRate	OrigDataStartFrame	OrigNumFrames
240	240	4	51	mm	240	326	372
Frame#	Time	Sternum			R.Acromium			L.Acromium			Top.Head			R.ASIS			L.ASIS			R.PSIS			L.PSIS			R.Great.Tro			L.Great.Tro			R.Iliac.Crest			L.Iliac.Crest			V.Sacral			R.Thigh.Upper.Post			R.Thigh.Lower.Ant			R.Thigh.Lower.Post			R.Thigh.Upper.Ant			R.Knee.Lat			R.Knee.Med			R.Shank.Upper.Post			R.Shank.Lower.Ant			R.Shank.Lower.Post			R.Shank.Upper.Ant			R.Ankle.Lat			R.Ankle.Med			R.Heel.Upper			R.Heel.Med			R.Heel.Lat			R.Toe.Lat			R.Toe.Med			R.Toe.Tip			L.Thigh.Upper.Post			L.Thigh.Lower.Ant			L.Thigh.Lower.Post			L.Thigh.Upper.Ant			L.Knee.Lat			L.Knee.Med			L.Shank.Upper.Post			L.Shank.Lower.Ant			L.Shank.Lower.Post			L.Shank.Upper.Ant			L.Ankle.Lat			L.Ankle.Med			L.Heel.Upper			L.Heel.Med			L.Heel.Lat			L.Toe.Lat			L.Toe.Med			L.Toe.Tip			Cervical.Spine			Back			
		X1	Y1	Z1	X2	Y2	Z2	X3	Y3	Z3	X4	Y4	Z4	X5	Y5	Z5	X6	Y6	Z6	X7	Y7	Z7	X8	Y8	Z8	X9	Y9	Z9	X10	Y10	Z10	X11	Y11	Z11	X12	Y12	Z12	X13	Y13	Z13	X14	Y14	Z14	X15	Y15	Z15	X16	Y16	Z16	X17	Y17	Z17	X18	Y18	Z18	X19	Y19	Z19	X20	Y20	Z20	X21	Y21	Z21	X22	Y22	Z22	X23	Y23	Z23	X24	Y24	Z24	X25	Y25	Z25	X26	Y26	Z26	X27	Y27	Z27	X28	Y28	Z28	X29	Y29	Z29	X30	Y30	Z30	X31	Y31	Z31	X32	Y32	Z32	X33	Y33	Z33	X34	Y34	Z34	X35	Y35	Z35	X36	Y36	Z36	X37	Y37	Z37	X38	Y38	Z38	X39	Y39	Z39	X40	Y40	Z40	X41	Y41	Z41	X42	Y42	Z42	X43	Y43	Z43	X44	Y44	Z44	X45	Y45	Z45	X46	Y46	Z46	X47	Y47	Z47	X48	Y48	Z48	X49	Y49	Z49	X50	Y50	Z50	X51	Y51	Z51	

326	1.3542	746.7	1242.6	317.45	638.93	1500.5	489.5	639.34	1518.7	160.33	695.01	1822.2	325.04	683.54	1001.2	465.56	693.81	1002.1	196.25	451.32	1042	369.21	447.68	1052.3	266.18	608.4	947.71	546.48	577.22	963.32	117.77	592.83	1096.7	528.06	586.97	1086.2	120.88	434.11	1012.6	311.92	717.22	656.27	526.07	811.34	623.55	499.67	757.61	579.58	502.97	773.01	703.22	521.11	807.31	541.26	500.28	813.01	539.43	349.33	817.91	375.15	517.97	910.71	325.28	483.78	843.6	309.61	507.01	880.49	391.01	499.96	941.82	121.14	476.51	968.77	147.01	387.07	898.26	60.279	414.5	927.11	44.846	385.35	922.59	38.262	448.89	1091.1	118.21	513.07	1116.3	148.16	393.81	1157.4	196.68	451.36	462.33	709.6	148.17	522.84	617.45	148.17	446.03	621.26	165.13	531.23	710.71	127.33	460.79	524.83	153.52	489.39	519.29	298.01	363.32	401.63	144.86	397.93	298.97	169.96	342.54	326.87	151.3	419.41	372.28	158.98	272.83	120.76	199.68	302.34	128.66	294.18	198.33	97.164	247.11	207.17	71.535	280.99	203.89	70.28	218.19	409.56	38.576	178.38	438.08	44.764	299.62	500.83	48.962	247.4	558.26	1571.5	325.72	449.33	1267.3	332.08
327	1.3583	752.56	1241.2	318.05	644.82	1498.9	490.5	645.14	1517.5	161.34	700.92	1820.9	326.3	689.66	999.75	465.79	699.58	1000.9	196.33	457.25	1040.5	369.72	453.5	1051.1	266.74	614.6	946.15	546.69	582.71	962.35	118	598.79	1095	528.52	592.49	1084.9	121.18	439.98	1011.3	312.4	724.06	655.3	526	818.14	622.71	499.19	764.5	578.66	502.86	779.77	702.35	520.76	814.11	540.25	500	819.3	538.44	349.13	825.11	374.11	517.62	917.97	324.48	483.24	850.95	308.65	506.59	887.62	390.13	499.5	949.63	120.52	475.85	976.29	146.39	386.33	906.08	59.675	413.97	934.86	44.23	384.75	930.5	37.721	448.32	1099	117.94	512.03	1123.8	147.96	392.66	1164.9	196.6	450.11	467.29	709.02	148.47	527.51	616.69	148.19	450.77	620.7	165.39	536.13	709.97	127.46	465.17	524.24	153.59	494.07	518.45	297.96	366.74	401.81	144.82	400.4	298.83	169.88	345.27	327.25	151.17	422.55	371.94	158.97	273.62	121.64	199.52	303.08	129.5	293.98	198.85	98.623	246.84	207.49	73.028	280.78	204.26	71.64	217.97	409.64	38.582	178.38	438.2	44.716	299.6	500.96	48.733	247.4	564.08	1570.2	326.82	455.08	1266	332.76
328	1.3625	758.44	1239.8	318.66	650.73	1497.2	491.53	650.94	1516.3	162.38	706.84	1819.5	327.59	695.84	998.36	466.02	705.41	999.66	196.42	463.23	1039	370.26	459.36	1049.9	267.33	620.87	944.66	546.92	588.26	961.38	118.25	604.8	1093.4	529	598.02	1083.7	121.51	445.9	1010	312.93	731.02	654.41	525.92	825.07	621.95	498.7	771.51	577.83	502.73	786.65	701.57	520.4	820.99	539.26	499.71	825.72	537.53	348.96	832.16	373.08	517.22	925.01	323.57	482.66	858.05	307.66	506.12	894.61	389.17	499	956.87	119.8	475.13	983.31	145.6	385.55	913.25	59.083	413.35	941.95	43.556	384.09	937.7	37.157	447.68	1106.3	117.32	510.98	1130.7	147.34	391.51	1171.9	196.01	448.87	472.37	708.42	148.77	532.32	615.92	148.23	455.65	620.11	165.65	541.15	709.23	127.6	469.71	523.62	153.67	498.89	517.59	297.91	370.29	402	144.79	402.96	298.71	169.8	348.11	327.65	151.05	425.81	371.6	158.97	274.46	122.59	199.33	303.88	130.4	293.77	199.43	100.19	246.53	207.84	74.631	280.53	204.66	73.099	217.73	409.72	38.592	178.38	438.33	44.669	299.58	501.08	48.502	247.4	569.91	1568.9	327.97	460.85	1264.6	333.46
329	1.3667	764.36	1238.5	319.27	656.67	1495.6	492.59	656.74	1515.1	163.46	712.78	1818.3	328.92	702.07	997.02	466.26	711.29	998.45	196.52	469.26	1037.6	370.83	465.28	1048.7	267.96	627.2	943.24	547.17	593.86	960.41	118.52	610.88	1091.8	529.5	603.58	1082.5	121.86	451.88	1008.7	313.49	738.08	653.61	525.8	832.1	621.27	498.2	778.62	577.07	502.59	793.63	700.86	520.03	827.93	538.31	499.4	832.25	536.7	348.79	839.06	372.06	516.78	931.82	322.55	482.03	864.91	306.65	505.61	901.47	388.14	498.47	963.57	118.99	474.37	989.85	144.64	384.72	919.81	58.511	412.67	948.38	42.829	383.38	944.21	36.58	447	1112.9	116.35	509.92	1137.2	146.29	390.37	1178.6	194.93	447.63	477.56	707.8	149.08	537.25	615.14	148.28	460.66	619.5	165.92	546.28	708.47	127.76	474.39	522.99	153.77	503.85	516.72	297.87	373.97	402.22	144.75	405.63	298.61	169.71	351.06	328.08	150.92	429.19	371.27	158.97	275.37	123.6	199.11	304.73	131.37	293.53	200.05	101.86	246.2	208.24	76.348	280.26	205.11	74.664	217.46	409.81	38.605	178.37	438.45	44.625	299.55	501.21	48.268	247.4	575.75	1567.6	329.14	466.64	1263.3	334.18
